<svg width="200" height="240" viewBox="0 0 200 240" xmlns="http://www.w3.org/2000/svg">
    <defs>
        <linearGradient id="pipeGradient" x1="0%" y1="0%" x2="100%" y2="0%">
            <stop offset="0%" style="stop-color:#004a99;stop-opacity:1" />
            <stop offset="50%" style="stop-color:#0072e3;stop-opacity:1" />
            <stop offset="100%" style="stop-color:#004a99;stop-opacity:1" />
        </linearGradient>
        <linearGradient id="highlightGradient" x1="0%" y1="0%" x2="0%" y2="100%">
            <stop offset="0%" style="stop-color:#5eead4;stop-opacity:1" />
            <stop offset="100%" style="stop-color:#2dd4bf;stop-opacity:1" />
        </linearGradient>
    </defs>

    <ellipse cx="100" cy="225" rx="40" ry="10" fill="#e2e8f0" />

    <g stroke-width="35" fill="none" stroke-linecap="round">
        <path d="M 60 170 A 40 40 0 1 0 140 170" stroke="url(#pipeGradient)" />
        <path d="M 140 170 L 60 70" stroke="url(#highlightGradient)" stroke-width="38" />
        <path d="M 60 70 A 40 40 0 1 1 140 70" stroke="url(#pipeGradient)" />
    </g>

    <g fill="#94a3b8">
        <rect x="135" y="45" width="15" height="50" rx="4" />
        <rect x="155" y="45" width="15" height="50" rx="4" />
    </g>

    <g fill="#94a3b8">
        <rect x="30" y="145" width="15" height="50" rx="4" />
        <rect x="50" y="145" width="15" height="50" rx="4" />
    </g>

    <path d="M 140 170 L 100 120" stroke="white" stroke-width="2" stroke-opacity="0.3" fill="none" />
</svg>
